<svg width="24" height="24" viewBox="0 0 24 24" fill="none" xmlns="http://www.w3.org/2000/svg">
<path d="M10.6667 24V13.3667C9.24444 13.3667 7.87778 13.0944 6.56667 12.55C5.25556 12.0056 4.1 11.2333 3.1 10.2333C2.1 9.23333 1.33333 8.07778 0.8 6.76667C0.266667 5.45556 0 4.08889 0 2.66667V0H2.66667C4.06667 0 5.42222 0.272222 6.73333 0.816667C8.04444 1.36111 9.2 2.13333 10.2 3.13333C10.8889 3.82222 11.4611 4.57778 11.9167 5.4C12.3722 6.22222 12.7222 7.1 12.9667 8.03333C13.0778 7.87778 13.2 7.72778 13.3333 7.58333C13.4667 7.43889 13.6111 7.28889 13.7667 7.13333C14.7667 6.13333 15.9222 5.36111 17.2333 4.81667C18.5444 4.27222 19.9111 4 21.3333 4H24V6.66667C24 8.08889 23.7278 9.45556 23.1833 10.7667C22.6389 12.0778 21.8667 13.2333 20.8667 14.2333C19.8667 15.2333 18.7167 16 17.4167 16.5333C16.1167 17.0667 14.7556 17.3333 13.3333 17.3333V24H10.6667ZM10.6667 10.6667C10.6667 9.6 10.4611 8.58333 10.05 7.61667C9.63889 6.65 9.05556 5.78889 8.3 5.03333C7.54444 4.27778 6.68333 3.69444 5.71667 3.28333C4.75 2.87222 3.73333 2.66667 2.66667 2.66667C2.66667 3.73333 2.86667 4.75556 3.26667 5.73333C3.66667 6.71111 4.24444 7.57778 5 8.33333C5.75556 9.08889 6.62222 9.66667 7.6 10.0667C8.57778 10.4667 9.6 10.6667 10.6667 10.6667ZM13.3333 14.6667C14.4 14.6667 15.4167 14.4667 16.3833 14.0667C17.35 13.6667 18.2111 13.0889 18.9667 12.3333C19.7222 11.5778 20.3056 10.7111 20.7167 9.73333C21.1278 8.75556 21.3333 7.73333 21.3333 6.66667C20.2667 6.66667 19.2444 6.87222 18.2667 7.28333C17.2889 7.69444 16.4222 8.27778 15.6667 9.03333C14.9111 9.78889 14.3333 10.65 13.9333 11.6167C13.5333 12.5833 13.3333 13.6 13.3333 14.6667Z" fill="#AAB17D"/>
</svg>
